<?xml version="1.0" encoding="utf-8"?>
<!-- Generator: Adobe Illustrator 27.5.0, SVG Export Plug-In . SVG Version: 6.00 Build 0)  -->
<svg version="1.1" xmlns="http://www.w3.org/2000/svg" xmlns:xlink="http://www.w3.org/1999/xlink" x="0px" y="0px"
	 viewBox="0 0 750 500" style="enable-background:new 0 0 750 500;" xml:space="preserve">
<g id="Background_Simple">
	<g>
		<path style="fill:#92E3A9;" d="M286.182,112.488c97.474-47.994,197.73-110.752,310.967-85.069
			c35.11,7.963,67.062,27.87,88.661,56.811c57.753,77.387,53.057,195.92,21.679,283.033c-4.095,11.368-9.208,22.393-15.787,32.547
			c-31.847,49.154-85.513,51.47-137.276,37.259c-43.805-12.026-82.614-24.399-127.864-12.17
			c-25.063,6.773-49.35,16.082-74.321,23.167c-33.997,9.646-69.046,16.199-104.452,16.862
			C154.12,466.684,47.122,418.9,38.823,314.297c-0.538-6.779-0.633-13.592-0.328-20.385c1.871-41.759,15.672-83.579,53.925-105.26
			c38.459-21.798,84.089-30.416,125.228-45.876C241.041,133.985,263.74,123.538,286.182,112.488z"/>
		<path style="opacity:0.7;fill:#FFFFFF;" d="M286.182,112.488c97.474-47.994,197.73-110.752,310.967-85.069
			c35.11,7.963,67.062,27.87,88.661,56.811c57.753,77.387,53.057,195.92,21.679,283.033c-4.095,11.368-9.208,22.393-15.787,32.547
			c-31.847,49.154-85.513,51.47-137.276,37.259c-43.805-12.026-82.614-24.399-127.864-12.17
			c-25.063,6.773-49.35,16.082-74.321,23.167c-33.997,9.646-69.046,16.199-104.452,16.862
			C154.12,466.684,47.122,418.9,38.823,314.297c-0.538-6.779-0.633-13.592-0.328-20.385c1.871-41.759,15.672-83.579,53.925-105.26
			c38.459-21.798,84.089-30.416,125.228-45.876C241.041,133.985,263.74,123.538,286.182,112.488z"/>
	</g>
</g>
<g id="Floor">
	
		<line style="fill:none;stroke:#263238;stroke-linecap:round;stroke-linejoin:round;stroke-miterlimit:10;" x1="29.511" y1="442.844" x2="723.724" y2="442.844"/>
</g>
<g id="Segment_Lines">
	<g>
		<g>
			<polyline style="fill:none;stroke:#263238;stroke-miterlimit:10;" points="565.484,315.648 565.484,318.148 562.984,318.148 			
				"/>
			
				<line style="fill:none;stroke:#263238;stroke-miterlimit:10;stroke-dasharray:5.0799,5.0799;" x1="557.904" y1="318.148" x2="286.13" y2="318.148"/>
			<polyline style="fill:none;stroke:#263238;stroke-miterlimit:10;" points="283.59,318.148 281.09,318.148 281.09,315.648 			"/>
			
				<line style="fill:none;stroke:#263238;stroke-miterlimit:10;stroke-dasharray:5.0065,5.0065;" x1="281.09" y1="310.641" x2="281.09" y2="62.821"/>
			<polyline style="fill:none;stroke:#263238;stroke-miterlimit:10;" points="281.09,60.318 281.09,57.818 283.59,57.818 			"/>
			
				<line style="fill:none;stroke:#263238;stroke-miterlimit:10;stroke-dasharray:5.0799,5.0799;" x1="288.67" y1="57.818" x2="560.444" y2="57.818"/>
			<polyline style="fill:none;stroke:#263238;stroke-miterlimit:10;" points="562.984,57.818 565.484,57.818 565.484,60.318 			"/>
			
				<line style="fill:none;stroke:#263238;stroke-miterlimit:10;stroke-dasharray:5.0065,5.0065;" x1="565.484" y1="65.324" x2="565.484" y2="313.145"/>
		</g>
	</g>
	<g>
		<g>
			<polyline style="fill:none;stroke:#263238;stroke-miterlimit:10;" points="245.561,395.862 245.561,398.362 243.061,398.362 			
				"/>
			
				<line style="fill:none;stroke:#263238;stroke-miterlimit:10;stroke-dasharray:5.0777,5.0777;" x1="237.983" y1="398.362" x2="27.257" y2="398.362"/>
			<polyline style="fill:none;stroke:#263238;stroke-miterlimit:10;" points="24.719,398.362 22.219,398.362 22.219,395.862 			"/>
			
				<line style="fill:none;stroke:#263238;stroke-miterlimit:10;stroke-dasharray:4.9317,4.9317;" x1="22.219" y1="390.93" x2="22.219" y2="196.127"/>
			<polyline style="fill:none;stroke:#263238;stroke-miterlimit:10;" points="22.219,193.661 22.219,191.161 24.719,191.161 			"/>
			
				<line style="fill:none;stroke:#263238;stroke-miterlimit:10;stroke-dasharray:5.0777,5.0777;" x1="29.796" y1="191.161" x2="240.522" y2="191.161"/>
			<polyline style="fill:none;stroke:#263238;stroke-miterlimit:10;" points="243.061,191.161 245.561,191.161 245.561,193.661 			
				"/>
			
				<line style="fill:none;stroke:#263238;stroke-miterlimit:10;stroke-dasharray:4.9317,4.9317;" x1="245.561" y1="198.593" x2="245.561" y2="393.396"/>
		</g>
	</g>
	<g>
		<g>
			<polyline style="fill:none;stroke:#263238;stroke-miterlimit:10;" points="718.822,395.862 718.822,398.362 716.322,398.362 			
				"/>
			
				<line style="fill:none;stroke:#263238;stroke-miterlimit:10;stroke-dasharray:5.0777,5.0777;" x1="711.244" y1="398.362" x2="500.518" y2="398.362"/>
			<polyline style="fill:none;stroke:#263238;stroke-miterlimit:10;" points="497.98,398.362 495.48,398.362 495.48,395.862 			"/>
			
				<line style="fill:none;stroke:#263238;stroke-miterlimit:10;stroke-dasharray:4.9317,4.9317;" x1="495.48" y1="390.93" x2="495.48" y2="196.127"/>
			<polyline style="fill:none;stroke:#263238;stroke-miterlimit:10;" points="495.48,193.661 495.48,191.161 497.98,191.161 			"/>
			
				<line style="fill:none;stroke:#263238;stroke-miterlimit:10;stroke-dasharray:5.0777,5.0777;" x1="503.057" y1="191.161" x2="713.783" y2="191.161"/>
			<polyline style="fill:none;stroke:#263238;stroke-miterlimit:10;" points="716.322,191.161 718.822,191.161 718.822,193.661 			
				"/>
			
				<line style="fill:none;stroke:#263238;stroke-miterlimit:10;stroke-dasharray:4.9317,4.9317;" x1="718.822" y1="198.593" x2="718.822" y2="393.396"/>
		</g>
	</g>
</g>
<g id="Plant">
	<g>
		<g>
			<path style="fill:#92E3A9;stroke:#263238;stroke-linecap:round;stroke-linejoin:round;stroke-miterlimit:10;" d="
				M384.627,302.246c0,0-2.337,6.428-7.305,7.305c-4.967,0.877-13.733-8.765-8.181-13.733
				C374.693,290.851,382.289,298.74,384.627,302.246z"/>
			<path style="fill:#92E3A9;stroke:#263238;stroke-linecap:round;stroke-linejoin:round;stroke-miterlimit:10;" d="M392.223,270.69
				c0,0-7.305,17.823-4.383,26.589c2.922,8.765,21.037,15.194,26.297,3.798c5.259-11.395-6.428-27.465-10.811-30.971
				C398.944,266.6,393.684,267.768,392.223,270.69z"/>
			<path style="fill:#92E3A9;stroke:#263238;stroke-linecap:round;stroke-linejoin:round;stroke-miterlimit:10;" d="
				M434.882,278.287c0,0-12.564,11.395-14.025,22.79c-1.461,11.395,7.012,15.486,15.778,14.025
				c8.765-1.461,13.148-23.667,10.519-33.893C444.524,270.983,434.882,278.287,434.882,278.287z"/>
			<g>
				<path style="fill:#92E3A9;stroke:#263238;stroke-linecap:round;stroke-linejoin:round;stroke-miterlimit:10;" d="
					M437.22,341.399c0,0-14.025,0.585-14.609,7.305c-0.584,6.72,6.136,8.181,12.856,2.337
					C442.187,345.197,443.063,341.691,437.22,341.399z"/>
				<path style="fill:none;stroke:#263238;stroke-miterlimit:10;" d="M422.843,350.305c0,0,11.053-5.057,16.031-5.935"/>
			</g>
			<g>
				<path style="fill:#92E3A9;stroke:#263238;stroke-linecap:round;stroke-linejoin:round;stroke-miterlimit:10;" d="
					M440.346,385.371c0,0-10.302-9.534-15.48-5.211c-5.178,4.323-1.477,10.119,7.405,10.766
					C441.154,391.572,444.259,389.722,440.346,385.371z"/>
				<path style="fill:none;stroke:#263238;stroke-miterlimit:10;" d="M423.894,381.454c0,0,11.379,4.274,15.511,7.185"/>
			</g>
			<g>
				<path style="fill:#92E3A9;stroke:#263238;stroke-linecap:round;stroke-linejoin:round;stroke-miterlimit:10;" d="
					M386.005,382.564c0,0,14.201-13.143,21.339-7.184c7.138,5.96,2.035,13.949-10.208,14.84
					C384.892,391.111,380.612,388.561,386.005,382.564z"/>
				<path style="fill:none;stroke:#263238;stroke-miterlimit:10;" d="M408.684,377.163c0,0-15.685,5.892-21.381,9.904"/>
			</g>
			<path style="fill:#92E3A9;stroke:#263238;stroke-linecap:round;stroke-linejoin:round;stroke-miterlimit:10;" d="M402.45,355.424
				c0,0-1.461,7.012-6.72,9.642c-5.259,2.63-14.609-2.922-9.642-11.395C391.055,345.197,399.82,351.917,402.45,355.424z"/>
			<path style="fill:#92E3A9;stroke:#263238;stroke-linecap:round;stroke-linejoin:round;stroke-miterlimit:10;" d="M390.178,333.51
				c0,0-2.63-5.844-12.856-2.045c-10.226,3.798-14.317,9.642-7.889,11.687C375.861,345.197,390.178,333.51,390.178,333.51z"/>
			<path style="fill:none;stroke:#263238;stroke-miterlimit:10;" d="M388.22,333.243c0,0-10.833,1.171-16.689,6.149"/>
			<path style="fill:#92E3A9;stroke:#263238;stroke-linecap:round;stroke-linejoin:round;stroke-miterlimit:10;" d="
				M419.397,263.386c0,0,1.753,4.091,5.259,3.214c3.506-0.876,4.383-6.136,9.934-4.675c5.552,1.461,10.226,7.889,10.226,4.967
				c0-2.922-7.012-10.519-14.901-10.519C422.026,256.373,419.689,259.587,419.397,263.386z"/>
			<path style="fill:none;stroke:#263238;stroke-miterlimit:10;" d="M390.178,333.51c0,0,12.581-2.415,17.82,11.556
				c0.514,1.371,0.948,2.805,1.313,4.276"/>
			<path style="fill:#92E3A9;stroke:#263238;stroke-linecap:round;stroke-linejoin:round;stroke-miterlimit:10;" d="
				M442.685,319.975c0,0,2.63-5.844,12.856-2.045c10.226,3.798,14.317,9.642,7.889,11.687
				C457.002,331.663,442.685,319.975,442.685,319.975z"/>
			<path style="fill:none;stroke:#263238;stroke-miterlimit:10;" d="M445.022,320.361c0,0,10.54-0.586,15.518,5.563"/>
			<path style="fill:none;stroke:#263238;stroke-miterlimit:10;" d="M442.685,319.975c0,0-4.171-0.801-8.709,1.187"/>
			<path style="fill:none;stroke:#263238;stroke-miterlimit:10;" d="M396.885,309.494c-6.167-6.297-12.258-7.248-12.258-7.248
				s-8.997-2.381-12.51,0.84"/>
			<g>
				<line style="fill:none;stroke:#263238;stroke-miterlimit:10;" x1="398.137" y1="277.127" x2="397.59" y2="274.685"/>
				<path style="fill:none;stroke:#263238;stroke-miterlimit:10;" d="M412.365,406.298c0,0,1.31-50.318,0-65.598
					c-1.31-15.281-7.422-33.181-7.422-33.181l-6.227-27.804"/>
				<line style="fill:none;stroke:#263238;stroke-miterlimit:10;" x1="438.333" y1="287.93" x2="439.459" y2="285.518"/>
				<path style="fill:none;stroke:#263238;stroke-miterlimit:10;" d="M415.421,406.243c0,0,0.437-45.896,2.183-58.994
					c1.746-13.098,8.732-33.618,8.732-33.618l10.72-22.965"/>
				<path style="fill:none;stroke:#263238;stroke-miterlimit:10;" d="M422.843,350.305c0,0-3.056,26.313-4.802,56.001"/>
				<path style="fill:none;stroke:#263238;stroke-miterlimit:10;" d="M407.999,406.243c0,0,0.873-41.967-0.873-47.643
					c-1.746-5.676-4.676-3.177-4.676-3.177s-8.081,0.951-11.009,5.635"/>
				<path style="fill:none;stroke:#263238;stroke-miterlimit:10;" d="M410.004,352.611c2.284,12.799,0.177,53.676,0.177,53.676"/>
				<path style="fill:none;stroke:#263238;stroke-miterlimit:10;" d="M431.501,322.534c-2.529,1.731-4.959,4.524-6.636,8.997
					c-5.239,13.971-4.642,74.775-4.642,74.775"/>
				<path style="fill:none;stroke:#263238;stroke-miterlimit:10;" d="M398.405,311.159c2.729,3.205,5.376,7.538,7.41,13.386
					c6.986,20.083,9.605,72.092,8.295,81.697"/>
				<path style="fill:none;stroke:#263238;stroke-miterlimit:10;" d="M416.147,329.954c-0.425,25.347-0.726,76.288-0.726,76.288"/>
			</g>
			<path style="fill:none;stroke:#263238;stroke-miterlimit:10;" d="M416.2,326.801c0.288-16.76,0.627-33.163,0.967-41.985
				c0.873-22.703,2.23-21.43,2.23-21.43s1.616-5.097,10.693-4.512"/>
			<g>
				<path style="fill:#92E3A9;stroke:#263238;stroke-linecap:round;stroke-linejoin:round;stroke-miterlimit:10;" d="M405.02,345.94
					c0,0-7.305-6.514-4.383-9.717c2.922-3.204,21.037-5.553,26.297-1.388c5.259,4.165-6.428,10.038-10.811,11.319
					C411.74,347.436,406.48,347.008,405.02,345.94z"/>
				<path style="fill:none;stroke:#263238;stroke-miterlimit:10;" d="M411.765,340.607c-0.102,0.659-0.162,1.315-0.162,1.945"/>
				<path style="fill:none;stroke:#263238;stroke-miterlimit:10;" d="M414.277,333.002c0,0-1.087,2.174-1.875,4.839"/>
			</g>
			<g>
				<path style="fill:#92E3A9;stroke:#263238;stroke-linecap:round;stroke-linejoin:round;stroke-miterlimit:10;" d="M405.02,388.53
					c0,0-7.305-6.514-4.383-9.718c2.922-3.203,21.037-5.553,26.297-1.388c5.259,4.165-6.428,10.038-10.811,11.319
					C411.74,390.026,406.48,389.598,405.02,388.53z"/>
				<path style="fill:none;stroke:#263238;stroke-miterlimit:10;" d="M414.277,375.592c0,0-2.674,5.348-2.674,9.549"/>
			</g>
			<g>
				<path style="fill:#92E3A9;stroke:#263238;stroke-linecap:round;stroke-linejoin:round;stroke-miterlimit:10;" d="
					M410.457,370.518c0,0-4.96-4.423-2.976-6.598c1.984-2.175,14.283-3.77,17.854-0.943c3.571,2.828-4.364,6.815-7.34,7.685
					C415.02,371.533,411.449,371.243,410.457,370.518z"/>
				<path style="fill:none;stroke:#263238;stroke-miterlimit:10;" d="M416.743,361.734c0,0-1.815,3.631-1.815,6.484"/>
			</g>
		</g>
		
			<rect x="403.597" y="398.998" style="fill:#263238;stroke:#263238;stroke-linecap:round;stroke-linejoin:round;stroke-miterlimit:10;" width="19.773" height="43.845"/>
	</g>
</g>
<g id="Gears">
	<path style="fill:none;stroke:#263238;stroke-miterlimit:10;" d="M133.33,100.95v7.143l6.841,0.979
		c0.635,3.499,1.996,6.745,3.929,9.571l-4.16,5.549l5.051,5.051l5.529-4.145c2.816,1.95,6.052,3.332,9.546,3.988l0.982,6.867h7.143
		l0.979-6.841c3.499-0.635,6.745-1.996,9.571-3.929l5.549,4.16l5.051-5.051l-4.145-5.529c1.95-2.816,3.332-6.052,3.988-9.546
		l6.867-0.982v-7.143l-6.841-0.979c-0.635-3.499-1.996-6.745-3.929-9.571l4.16-5.549l-5.051-5.051l-5.529,4.145
		c-2.816-1.95-6.052-3.332-9.546-3.988l-0.982-6.867h-7.143l-0.978,6.841c-3.499,0.635-6.745,1.996-9.571,3.929l-5.549-4.16
		l-5.051,5.051l4.145,5.529c-1.95,2.816-3.332,6.052-3.988,9.546L133.33,100.95z M164.69,87.274c9.564,0,17.318,7.753,17.318,17.318
		c0,9.564-7.753,17.318-17.318,17.318c-9.564,0-17.318-7.753-17.318-17.318C147.373,95.028,155.126,87.274,164.69,87.274z"/>
	<path style="fill:none;stroke:#263238;stroke-miterlimit:10;" d="M192.064,94.081v6.109l5.85,0.837
		c0.543,2.992,1.707,5.768,3.36,8.185l-3.558,4.745l4.319,4.319l4.728-3.545c2.408,1.667,5.176,2.849,8.163,3.41l0.84,5.872h6.109
		l0.837-5.85c2.992-0.543,5.768-1.707,8.185-3.36l4.745,3.558l4.319-4.319l-3.545-4.728c1.667-2.408,2.849-5.175,3.41-8.164
		l5.873-0.84v-6.108l-5.851-0.837c-0.543-2.992-1.707-5.768-3.36-8.185l3.558-4.745l-4.32-4.32l-4.728,3.545
		c-2.408-1.667-5.175-2.849-8.163-3.41l-0.84-5.872h-6.108l-0.837,5.85c-2.992,0.543-5.768,1.707-8.185,3.36l-4.745-3.558
		l-4.319,4.319l3.545,4.728c-1.667,2.408-2.849,5.176-3.41,8.164L192.064,94.081z M218.882,82.386c8.179,0,14.81,6.63,14.81,14.81
		s-6.63,14.81-14.81,14.81c-8.179,0-14.81-6.63-14.81-14.81S210.702,82.386,218.882,82.386z"/>
	<path style="fill:none;stroke:#263238;stroke-miterlimit:10;" d="M497.884,353.954v7.143l6.841,0.979
		c0.635,3.499,1.996,6.745,3.929,9.571l-4.16,5.549l5.051,5.051l5.529-4.145c2.816,1.95,6.052,3.332,9.546,3.988l0.982,6.867h7.143
		l0.979-6.841c3.499-0.635,6.745-1.996,9.571-3.929l5.549,4.16l5.051-5.051l-4.145-5.529c1.95-2.816,3.332-6.052,3.988-9.546
		l6.867-0.982v-7.143l-6.841-0.978c-0.635-3.499-1.996-6.745-3.929-9.571l4.16-5.549l-5.051-5.051l-5.529,4.145
		c-2.816-1.95-6.052-3.332-9.546-3.988l-0.982-6.867h-7.143l-0.978,6.841c-3.499,0.635-6.745,1.996-9.571,3.929l-5.549-4.16
		l-5.051,5.051l4.145,5.529c-1.95,2.816-3.332,6.052-3.988,9.546L497.884,353.954z M529.245,340.278
		c9.564,0,17.318,7.753,17.318,17.318c0,9.564-7.753,17.318-17.318,17.318c-9.564,0-17.318-7.753-17.318-17.318
		C511.927,348.031,519.68,340.278,529.245,340.278z"/>
	<path style="fill:none;stroke:#263238;stroke-miterlimit:10;" d="M556.618,347.085v6.109l5.851,0.837
		c0.543,2.992,1.707,5.768,3.36,8.185l-3.557,4.745l4.319,4.319l4.728-3.545c2.408,1.667,5.176,2.849,8.163,3.41l0.84,5.872h6.109
		l0.837-5.85c2.992-0.543,5.768-1.707,8.185-3.36l4.745,3.557l4.319-4.319l-3.545-4.728c1.667-2.408,2.849-5.175,3.41-8.163
		l5.872-0.84v-6.108l-5.851-0.837c-0.543-2.992-1.707-5.768-3.36-8.185l3.558-4.745l-4.32-4.32l-4.728,3.545
		c-2.408-1.667-5.175-2.849-8.163-3.41l-0.84-5.872h-6.109l-0.837,5.85c-2.992,0.543-5.768,1.707-8.185,3.36l-4.745-3.558
		l-4.319,4.319l3.545,4.728c-1.667,2.408-2.849,5.176-3.41,8.164L556.618,347.085z M583.436,335.389c8.179,0,14.81,6.63,14.81,14.81
		c0,8.179-6.631,14.809-14.81,14.809s-14.81-6.63-14.81-14.809C568.626,342.02,575.257,335.389,583.436,335.389z"/>
	<path style="fill:none;stroke:#263238;stroke-miterlimit:10;" d="M628.081,78.004v6.109l5.85,0.837
		c0.543,2.992,1.707,5.768,3.36,8.185l-3.558,4.745l4.319,4.319l4.728-3.545c2.408,1.667,5.176,2.849,8.164,3.41l0.84,5.872h6.109
		l0.837-5.85c2.992-0.543,5.768-1.707,8.185-3.36l4.745,3.558l4.319-4.319l-3.545-4.728c1.667-2.408,2.849-5.175,3.41-8.163
		l5.872-0.84v-6.108l-5.85-0.837c-0.543-2.992-1.707-5.768-3.36-8.185l3.558-4.745l-4.32-4.32l-4.728,3.545
		c-2.408-1.667-5.176-2.849-8.163-3.41l-0.84-5.872h-6.109l-0.837,5.85c-2.992,0.543-5.768,1.707-8.185,3.36l-4.745-3.558
		l-4.319,4.319l3.545,4.728c-1.667,2.408-2.849,5.176-3.41,8.164L628.081,78.004z M654.899,66.309c8.179,0,14.81,6.631,14.81,14.81
		c0,8.179-6.63,14.81-14.81,14.81s-14.81-6.63-14.81-14.81C640.089,72.939,646.72,66.309,654.899,66.309z"/>
</g>
<g id="Screen">
	<g>
		<path style="fill:#263238;stroke:#263238;stroke-linecap:round;stroke-linejoin:round;stroke-miterlimit:10;" d="M644.724,302.119
			H420.462V87.134c0-4.706,3.815-8.521,8.521-8.521h207.22c4.706,0,8.521,3.815,8.521,8.521V302.119z"/>
		<path style="fill:#FFFFFF;stroke:#263238;stroke-linecap:round;stroke-linejoin:round;stroke-miterlimit:10;" d="M649.829,297.015
			H425.567V82.03c0-4.706,3.815-8.521,8.521-8.521h207.22c4.706,0,8.521,3.815,8.521,8.521V297.015z"/>
		<path style="fill:#92E3A9;stroke:#263238;stroke-linecap:round;stroke-linejoin:round;stroke-miterlimit:10;" d="M649.829,94.872
			H425.567V82.03c0-4.706,3.815-8.521,8.521-8.521h207.22c4.706,0,8.521,3.815,8.521,8.521V94.872z"/>
		<g>
			
				<circle style="fill:#FFFFFF;stroke:#263238;stroke-linecap:round;stroke-linejoin:round;stroke-miterlimit:10;" cx="610.278" cy="84.869" r="3.482"/>
			<path style="fill:#FFFFFF;stroke:#263238;stroke-linecap:round;stroke-linejoin:round;stroke-miterlimit:10;" d="M624.204,84.869
				c0-1.923-1.559-3.482-3.482-3.482c-1.923,0-3.482,1.559-3.482,3.482c0,1.923,1.559,3.482,3.482,3.482
				C622.646,88.351,624.204,86.792,624.204,84.869z"/>
			
				<circle style="fill:#263238;stroke:#263238;stroke-linecap:round;stroke-linejoin:round;stroke-miterlimit:10;" cx="631.168" cy="84.869" r="3.482"/>
		</g>
	</g>
	<g>
		<g>
			
				<line style="fill:none;stroke:#263238;stroke-width:3;stroke-linecap:round;stroke-linejoin:round;stroke-miterlimit:10;" x1="448.577" y1="107.642" x2="465.067" y2="107.642"/>
			
				<line style="fill:none;stroke:#C4C4C4;stroke-width:3;stroke-linecap:round;stroke-linejoin:round;stroke-miterlimit:10;" x1="448.577" y1="117.328" x2="510.527" y2="117.328"/>
			
				<line style="fill:none;stroke:#C4C4C4;stroke-width:3;stroke-linecap:round;stroke-linejoin:round;stroke-miterlimit:10;" x1="544.399" y1="117.328" x2="606.349" y2="117.328"/>
			
				<line style="fill:none;stroke:#263238;stroke-width:3;stroke-linecap:round;stroke-linejoin:round;stroke-miterlimit:10;" x1="514.538" y1="117.328" x2="539.051" y2="117.328"/>
			
				<line style="fill:none;stroke:#263238;stroke-width:3;stroke-linecap:round;stroke-linejoin:round;stroke-miterlimit:10;" x1="448.577" y1="127.015" x2="484.232" y2="127.015"/>
			
				<line style="fill:none;stroke:#263238;stroke-width:3;stroke-linecap:round;stroke-linejoin:round;stroke-miterlimit:10;" x1="488.689" y1="127.015" x2="524.343" y2="127.015"/>
			
				<line style="fill:none;stroke:#263238;stroke-width:3;stroke-linecap:round;stroke-linejoin:round;stroke-miterlimit:10;" x1="528.8" y1="127.015" x2="564.455" y2="127.015"/>
			
				<line style="fill:none;stroke:#263238;stroke-width:3;stroke-linecap:round;stroke-linejoin:round;stroke-miterlimit:10;" x1="568.912" y1="127.015" x2="584.065" y2="127.015"/>
			
				<line style="fill:none;stroke:#263238;stroke-width:3;stroke-linecap:round;stroke-linejoin:round;stroke-miterlimit:10;" x1="469.524" y1="107.642" x2="486.014" y2="107.642"/>
			<g>
				
					<line style="fill:none;stroke:#263238;stroke-width:3;stroke-linecap:round;stroke-linejoin:round;stroke-miterlimit:10;" x1="567.575" y1="107.642" x2="584.065" y2="107.642"/>
				
					<line style="fill:none;stroke:#C4C4C4;stroke-width:3;stroke-linecap:round;stroke-linejoin:round;stroke-miterlimit:10;" x1="545.736" y1="107.642" x2="562.227" y2="107.642"/>
				
					<line style="fill:none;stroke:#263238;stroke-width:3;stroke-linecap:round;stroke-linejoin:round;stroke-miterlimit:10;" x1="490.471" y1="107.642" x2="538.605" y2="107.642"/>
			</g>
		</g>
		<g>
			
				<line style="fill:none;stroke:#263238;stroke-width:3;stroke-linecap:round;stroke-linejoin:round;stroke-miterlimit:10;" x1="448.577" y1="166.781" x2="465.067" y2="166.781"/>
			
				<line style="fill:none;stroke:#C4C4C4;stroke-width:3;stroke-linecap:round;stroke-linejoin:round;stroke-miterlimit:10;" x1="448.577" y1="176.467" x2="510.527" y2="176.467"/>
			
				<line style="fill:none;stroke:#263238;stroke-width:3;stroke-linecap:round;stroke-linejoin:round;stroke-miterlimit:10;" x1="544.399" y1="176.467" x2="606.349" y2="176.467"/>
			
				<line style="fill:none;stroke:#263238;stroke-width:3;stroke-linecap:round;stroke-linejoin:round;stroke-miterlimit:10;" x1="514.538" y1="176.467" x2="539.051" y2="176.467"/>
			
				<line style="fill:none;stroke:#263238;stroke-width:3;stroke-linecap:round;stroke-linejoin:round;stroke-miterlimit:10;" x1="448.577" y1="186.154" x2="484.232" y2="186.154"/>
			
				<line style="fill:none;stroke:#263238;stroke-width:3;stroke-linecap:round;stroke-linejoin:round;stroke-miterlimit:10;" x1="488.689" y1="186.154" x2="524.343" y2="186.154"/>
			
				<line style="fill:none;stroke:#C4C4C4;stroke-width:3;stroke-linecap:round;stroke-linejoin:round;stroke-miterlimit:10;" x1="528.8" y1="186.154" x2="564.455" y2="186.154"/>
			
				<line style="fill:none;stroke:#263238;stroke-width:3;stroke-linecap:round;stroke-linejoin:round;stroke-miterlimit:10;" x1="568.912" y1="186.154" x2="584.065" y2="186.154"/>
			
				<line style="fill:none;stroke:#263238;stroke-width:3;stroke-linecap:round;stroke-linejoin:round;stroke-miterlimit:10;" x1="469.524" y1="166.781" x2="486.014" y2="166.781"/>
			<g>
				
					<line style="fill:none;stroke:#263238;stroke-width:3;stroke-linecap:round;stroke-linejoin:round;stroke-miterlimit:10;" x1="567.575" y1="166.781" x2="584.065" y2="166.781"/>
				
					<line style="fill:none;stroke:#C4C4C4;stroke-width:3;stroke-linecap:round;stroke-linejoin:round;stroke-miterlimit:10;" x1="545.736" y1="166.781" x2="562.227" y2="166.781"/>
				
					<line style="fill:none;stroke:#263238;stroke-width:3;stroke-linecap:round;stroke-linejoin:round;stroke-miterlimit:10;" x1="490.471" y1="166.781" x2="538.605" y2="166.781"/>
			</g>
		</g>
		<g>
			
				<line style="fill:none;stroke:#263238;stroke-width:3;stroke-linecap:round;stroke-linejoin:round;stroke-miterlimit:10;" x1="448.577" y1="253.96" x2="465.067" y2="253.96"/>
			
				<line style="fill:none;stroke:#C4C4C4;stroke-width:3;stroke-linecap:round;stroke-linejoin:round;stroke-miterlimit:10;" x1="448.577" y1="263.647" x2="510.527" y2="263.647"/>
			
				<line style="fill:none;stroke:#263238;stroke-width:3;stroke-linecap:round;stroke-linejoin:round;stroke-miterlimit:10;" x1="544.399" y1="263.647" x2="606.349" y2="263.647"/>
			
				<line style="fill:none;stroke:#263238;stroke-width:3;stroke-linecap:round;stroke-linejoin:round;stroke-miterlimit:10;" x1="514.538" y1="263.647" x2="539.051" y2="263.647"/>
			
				<line style="fill:none;stroke:#263238;stroke-width:3;stroke-linecap:round;stroke-linejoin:round;stroke-miterlimit:10;" x1="448.577" y1="273.333" x2="484.232" y2="273.333"/>
			
				<line style="fill:none;stroke:#263238;stroke-width:3;stroke-linecap:round;stroke-linejoin:round;stroke-miterlimit:10;" x1="488.689" y1="273.333" x2="524.343" y2="273.333"/>
			
				<line style="fill:none;stroke:#C4C4C4;stroke-width:3;stroke-linecap:round;stroke-linejoin:round;stroke-miterlimit:10;" x1="528.8" y1="273.333" x2="564.455" y2="273.333"/>
			
				<line style="fill:none;stroke:#263238;stroke-width:3;stroke-linecap:round;stroke-linejoin:round;stroke-miterlimit:10;" x1="568.912" y1="273.333" x2="584.065" y2="273.333"/>
			
				<line style="fill:none;stroke:#263238;stroke-width:3;stroke-linecap:round;stroke-linejoin:round;stroke-miterlimit:10;" x1="469.524" y1="253.96" x2="486.014" y2="253.96"/>
			<g>
				
					<line style="fill:none;stroke:#263238;stroke-width:3;stroke-linecap:round;stroke-linejoin:round;stroke-miterlimit:10;" x1="567.575" y1="253.96" x2="584.065" y2="253.96"/>
				
					<line style="fill:none;stroke:#C4C4C4;stroke-width:3;stroke-linecap:round;stroke-linejoin:round;stroke-miterlimit:10;" x1="545.736" y1="253.96" x2="562.227" y2="253.96"/>
				
					<line style="fill:none;stroke:#263238;stroke-width:3;stroke-linecap:round;stroke-linejoin:round;stroke-miterlimit:10;" x1="490.471" y1="253.96" x2="538.605" y2="253.96"/>
			</g>
		</g>
		<g>
			<g>
				
					<line style="fill:none;stroke:#263238;stroke-width:3;stroke-linecap:round;stroke-linejoin:round;stroke-miterlimit:10;" x1="541.279" y1="137.211" x2="557.77" y2="137.211"/>
				
					<line style="fill:none;stroke:#263238;stroke-width:3;stroke-linecap:round;stroke-linejoin:round;stroke-miterlimit:10;" x1="519.441" y1="137.211" x2="535.931" y2="137.211"/>
				
					<line style="fill:none;stroke:#263238;stroke-width:3;stroke-linecap:round;stroke-linejoin:round;stroke-miterlimit:10;" x1="464.176" y1="137.211" x2="512.31" y2="137.211"/>
			</g>
			<g>
				
					<line style="fill:none;stroke:#263238;stroke-width:3;stroke-linecap:round;stroke-linejoin:round;stroke-miterlimit:10;" x1="541.279" y1="154.545" x2="557.77" y2="154.545"/>
				
					<line style="fill:none;stroke:#263238;stroke-width:3;stroke-linecap:round;stroke-linejoin:round;stroke-miterlimit:10;" x1="519.441" y1="154.545" x2="535.931" y2="154.545"/>
				
					<line style="fill:none;stroke:#C4C4C4;stroke-width:3;stroke-linecap:round;stroke-linejoin:round;stroke-miterlimit:10;" x1="464.176" y1="154.545" x2="512.31" y2="154.545"/>
			</g>
			<g>
				
					<line style="fill:none;stroke:#263238;stroke-width:3;stroke-linecap:round;stroke-linejoin:round;stroke-miterlimit:10;" x1="480.666" y1="145.878" x2="464.176" y2="145.878"/>
				
					<line style="fill:none;stroke:#263238;stroke-width:3;stroke-linecap:round;stroke-linejoin:round;stroke-miterlimit:10;" x1="502.505" y1="145.878" x2="486.014" y2="145.878"/>
				
					<line style="fill:none;stroke:#C4C4C4;stroke-width:3;stroke-linecap:round;stroke-linejoin:round;stroke-miterlimit:10;" x1="557.77" y1="145.878" x2="509.636" y2="145.878"/>
			</g>
		</g>
		<g>
			<g>
				
					<line style="fill:none;stroke:#263238;stroke-width:3;stroke-linecap:round;stroke-linejoin:round;stroke-miterlimit:10;" x1="541.279" y1="197.88" x2="557.77" y2="197.88"/>
				
					<line style="fill:none;stroke:#263238;stroke-width:3;stroke-linecap:round;stroke-linejoin:round;stroke-miterlimit:10;" x1="519.441" y1="197.88" x2="535.931" y2="197.88"/>
				
					<line style="fill:none;stroke:#263238;stroke-width:3;stroke-linecap:round;stroke-linejoin:round;stroke-miterlimit:10;" x1="464.176" y1="197.88" x2="512.31" y2="197.88"/>
			</g>
			<g>
				
					<line style="fill:none;stroke:#263238;stroke-width:3;stroke-linecap:round;stroke-linejoin:round;stroke-miterlimit:10;" x1="541.279" y1="215.214" x2="557.77" y2="215.214"/>
				
					<line style="fill:none;stroke:#263238;stroke-width:3;stroke-linecap:round;stroke-linejoin:round;stroke-miterlimit:10;" x1="519.441" y1="215.214" x2="535.931" y2="215.214"/>
				
					<line style="fill:none;stroke:#C4C4C4;stroke-width:3;stroke-linecap:round;stroke-linejoin:round;stroke-miterlimit:10;" x1="464.176" y1="215.214" x2="512.31" y2="215.214"/>
			</g>
			<g>
				
					<line style="fill:none;stroke:#263238;stroke-width:3;stroke-linecap:round;stroke-linejoin:round;stroke-miterlimit:10;" x1="480.666" y1="206.547" x2="464.176" y2="206.547"/>
				
					<line style="fill:none;stroke:#263238;stroke-width:3;stroke-linecap:round;stroke-linejoin:round;stroke-miterlimit:10;" x1="502.505" y1="206.547" x2="486.014" y2="206.547"/>
				
					<line style="fill:none;stroke:#C4C4C4;stroke-width:3;stroke-linecap:round;stroke-linejoin:round;stroke-miterlimit:10;" x1="557.77" y1="206.547" x2="509.636" y2="206.547"/>
			</g>
		</g>
		<g>
			<g>
				
					<line style="fill:none;stroke:#263238;stroke-width:3;stroke-linecap:round;stroke-linejoin:round;stroke-miterlimit:10;" x1="480.666" y1="225.41" x2="464.176" y2="225.41"/>
				
					<line style="fill:none;stroke:#263238;stroke-width:3;stroke-linecap:round;stroke-linejoin:round;stroke-miterlimit:10;" x1="502.505" y1="225.41" x2="486.014" y2="225.41"/>
				
					<line style="fill:none;stroke:#C4C4C4;stroke-width:3;stroke-linecap:round;stroke-linejoin:round;stroke-miterlimit:10;" x1="557.77" y1="225.41" x2="509.636" y2="225.41"/>
			</g>
			<g>
				
					<line style="fill:none;stroke:#263238;stroke-width:3;stroke-linecap:round;stroke-linejoin:round;stroke-miterlimit:10;" x1="480.666" y1="242.744" x2="464.176" y2="242.744"/>
				
					<line style="fill:none;stroke:#263238;stroke-width:3;stroke-linecap:round;stroke-linejoin:round;stroke-miterlimit:10;" x1="502.505" y1="242.744" x2="486.014" y2="242.744"/>
				
					<line style="fill:none;stroke:#C4C4C4;stroke-width:3;stroke-linecap:round;stroke-linejoin:round;stroke-miterlimit:10;" x1="557.77" y1="242.744" x2="509.636" y2="242.744"/>
			</g>
			<g>
				
					<line style="fill:none;stroke:#263238;stroke-width:3;stroke-linecap:round;stroke-linejoin:round;stroke-miterlimit:10;" x1="541.279" y1="234.077" x2="557.77" y2="234.077"/>
				
					<line style="fill:none;stroke:#263238;stroke-width:3;stroke-linecap:round;stroke-linejoin:round;stroke-miterlimit:10;" x1="519.441" y1="234.077" x2="535.931" y2="234.077"/>
				
					<line style="fill:none;stroke:#C4C4C4;stroke-width:3;stroke-linecap:round;stroke-linejoin:round;stroke-miterlimit:10;" x1="464.176" y1="234.077" x2="512.31" y2="234.077"/>
			</g>
		</g>
		<g>
			<rect x="437.195" y="104.277" style="fill:#263238;" width="5.265" height="5.949"/>
			<rect x="437.195" y="114.05" style="fill:#263238;" width="5.265" height="5.949"/>
			<rect x="437.195" y="123.823" style="fill:#263238;" width="5.265" height="5.949"/>
			<rect x="437.195" y="133.595" style="fill:#263238;" width="5.265" height="5.949"/>
			<rect x="437.195" y="143.368" style="fill:#263238;" width="5.265" height="5.949"/>
			<rect x="437.195" y="153.14" style="fill:#263238;" width="5.265" height="5.949"/>
			<rect x="437.195" y="162.913" style="fill:#263238;" width="5.265" height="5.949"/>
			<rect x="437.195" y="172.686" style="fill:#263238;" width="5.265" height="5.949"/>
			<rect x="437.195" y="182.458" style="fill:#263238;" width="5.265" height="5.949"/>
			<rect x="437.195" y="192.231" style="fill:#263238;" width="5.265" height="5.949"/>
			<rect x="437.195" y="202.003" style="fill:#263238;" width="5.265" height="5.949"/>
			<rect x="437.195" y="211.776" style="fill:#263238;" width="5.265" height="5.949"/>
			<rect x="437.195" y="221.548" style="fill:#263238;" width="5.265" height="5.949"/>
			<rect x="437.195" y="231.321" style="fill:#263238;" width="5.265" height="5.949"/>
			<rect x="437.195" y="241.094" style="fill:#263238;" width="5.265" height="5.949"/>
			<rect x="437.195" y="250.866" style="fill:#263238;" width="5.265" height="5.949"/>
			<rect x="437.195" y="260.638" style="fill:#263238;" width="5.265" height="5.949"/>
			<rect x="437.195" y="270.411" style="fill:#263238;" width="5.265" height="5.949"/>
		</g>
	</g>
</g>
<g id="Files">
	<g>
		
			<rect x="167.602" y="168.008" transform="matrix(6.123234e-17 -1 1 6.123234e-17 13.5548 464.1085)" style="fill:#FFFFFF;stroke:#263238;stroke-linecap:round;stroke-linejoin:round;stroke-miterlimit:10;" width="142.459" height="114.538"/>
		<g>
			
				<line style="fill:none;stroke:#263238;stroke-linecap:round;stroke-linejoin:round;stroke-miterlimit:10;" x1="198.992" y1="273.311" x2="280.5" y2="273.311"/>
			
				<line style="fill:none;stroke:#263238;stroke-linecap:round;stroke-linejoin:round;stroke-miterlimit:10;" x1="198.992" y1="257.299" x2="280.5" y2="257.299"/>
			
				<line style="fill:none;stroke:#263238;stroke-linecap:round;stroke-linejoin:round;stroke-miterlimit:10;" x1="198.992" y1="241.288" x2="280.5" y2="241.288"/>
			
				<line style="fill:none;stroke:#263238;stroke-linecap:round;stroke-linejoin:round;stroke-miterlimit:10;" x1="198.992" y1="225.277" x2="280.5" y2="225.277"/>
			
				<line style="fill:none;stroke:#263238;stroke-linecap:round;stroke-linejoin:round;stroke-miterlimit:10;" x1="198.992" y1="209.266" x2="280.5" y2="209.266"/>
			
				<line style="fill:none;stroke:#263238;stroke-linecap:round;stroke-linejoin:round;stroke-miterlimit:10;" x1="198.992" y1="193.254" x2="280.5" y2="193.254"/>
			
				<line style="fill:none;stroke:#263238;stroke-linecap:round;stroke-linejoin:round;stroke-miterlimit:10;" x1="198.992" y1="177.243" x2="280.5" y2="177.243"/>
		</g>
	</g>
	<g>
		
			<rect x="256.125" y="153.598" style="fill:#263238;stroke:#263238;stroke-linecap:round;stroke-linejoin:round;stroke-miterlimit:10;" width="39.629" height="91.587"/>
		<g>
			
				<rect x="246.717" y="112.015" transform="matrix(6.123234e-17 -1 1 6.123234e-17 148.6629 487.231)" style="fill:#FFFFFF;stroke:#263238;stroke-linecap:round;stroke-linejoin:round;stroke-miterlimit:10;" width="142.459" height="114.538"/>
			<g>
				
					<line style="fill:none;stroke:#263238;stroke-linecap:round;stroke-linejoin:round;stroke-miterlimit:10;" x1="278.107" y1="217.318" x2="359.615" y2="217.318"/>
				
					<line style="fill:none;stroke:#263238;stroke-linecap:round;stroke-linejoin:round;stroke-miterlimit:10;" x1="278.107" y1="201.307" x2="359.615" y2="201.307"/>
				
					<line style="fill:none;stroke:#263238;stroke-linecap:round;stroke-linejoin:round;stroke-miterlimit:10;" x1="278.107" y1="185.295" x2="359.615" y2="185.295"/>
				
					<line style="fill:none;stroke:#263238;stroke-linecap:round;stroke-linejoin:round;stroke-miterlimit:10;" x1="278.107" y1="169.284" x2="359.615" y2="169.284"/>
				
					<line style="fill:none;stroke:#263238;stroke-linecap:round;stroke-linejoin:round;stroke-miterlimit:10;" x1="278.107" y1="153.273" x2="359.615" y2="153.273"/>
				
					<line style="fill:none;stroke:#263238;stroke-linecap:round;stroke-linejoin:round;stroke-miterlimit:10;" x1="278.107" y1="137.262" x2="359.615" y2="137.262"/>
				
					<line style="fill:none;stroke:#263238;stroke-linecap:round;stroke-linejoin:round;stroke-miterlimit:10;" x1="278.107" y1="121.25" x2="359.615" y2="121.25"/>
			</g>
		</g>
	</g>
</g>
<g id="Folder">
	<g>
		<polygon style="fill:#263238;stroke:#263238;stroke-linecap:round;stroke-linejoin:round;stroke-miterlimit:10;" points="
			334.323,336.57 181.188,336.57 196.49,442.828 347.649,442.828 		"/>
		<g>
			
				<rect x="216.055" y="277.329" style="fill:#263238;stroke:#263238;stroke-linecap:round;stroke-linejoin:round;stroke-miterlimit:10;" width="10.127" height="18.493"/>
			
				<rect x="207.16" y="284.572" transform="matrix(6.123234e-17 -1 1 6.123234e-17 -63.4517 620.2304)" style="fill:#FFFFFF;stroke:#263238;stroke-linecap:round;stroke-linejoin:round;stroke-miterlimit:10;" width="142.459" height="114.538"/>
			<g>
				
					<line style="fill:none;stroke:#263238;stroke-linecap:round;stroke-linejoin:round;stroke-miterlimit:10;" x1="238.55" y1="389.875" x2="320.058" y2="389.875"/>
				
					<line style="fill:none;stroke:#263238;stroke-linecap:round;stroke-linejoin:round;stroke-miterlimit:10;" x1="238.55" y1="373.863" x2="320.058" y2="373.863"/>
				
					<line style="fill:none;stroke:#263238;stroke-linecap:round;stroke-linejoin:round;stroke-miterlimit:10;" x1="238.55" y1="357.852" x2="320.058" y2="357.852"/>
				
					<line style="fill:none;stroke:#263238;stroke-linecap:round;stroke-linejoin:round;stroke-miterlimit:10;" x1="238.55" y1="341.841" x2="320.058" y2="341.841"/>
				
					<line style="fill:none;stroke:#263238;stroke-linecap:round;stroke-linejoin:round;stroke-miterlimit:10;" x1="238.55" y1="325.83" x2="320.058" y2="325.83"/>
				
					<line style="fill:none;stroke:#263238;stroke-linecap:round;stroke-linejoin:round;stroke-miterlimit:10;" x1="238.55" y1="309.819" x2="320.058" y2="309.819"/>
				
					<line style="fill:none;stroke:#263238;stroke-linecap:round;stroke-linejoin:round;stroke-miterlimit:10;" x1="238.55" y1="293.807" x2="320.058" y2="293.807"/>
			</g>
		</g>
		<path style="fill:#92E3A9;stroke:#263238;stroke-linecap:round;stroke-linejoin:round;stroke-miterlimit:10;" d="M347.672,341.859
			v-3.633c0-2.664-2.16-4.824-4.824-4.824h-61.442c-2.664,0-4.824,2.16-4.824,4.824l0,0c0,2.006-1.626,3.633-3.633,3.633H205.97
			l-9.48,100.969h151.106l9.48-100.969H347.672z"/>
	</g>
</g>
<g id="Bugs">
	<g>
		<g>
			<g>
				<path style="fill:#263238;" d="M332.118,146.987h-10.049c-0.912,0-1.651-0.739-1.651-1.651c0-0.912,0.739-1.651,1.651-1.651
					h10.049c0.912,0,1.651,0.739,1.651,1.651C333.769,146.248,333.03,146.987,332.118,146.987z"/>
			</g>
			<g>
				<path style="fill:#263238;" d="M332.646,136.445c-0.399,0-0.798-0.144-1.115-0.434l-9.52-8.727
					c-0.672-0.616-0.717-1.66-0.101-2.333c0.615-0.672,1.66-0.718,2.333-0.101l9.52,8.727c0.672,0.616,0.717,1.66,0.101,2.333
					C333.538,136.265,333.093,136.445,332.646,136.445z"/>
			</g>
			<g>
				<path style="fill:#263238;" d="M323.127,164.213c-0.447,0-0.892-0.18-1.217-0.535c-0.616-0.672-0.571-1.716,0.101-2.333
					l9.52-8.727c0.673-0.615,1.716-0.57,2.333,0.101c0.616,0.672,0.571,1.717-0.101,2.333l-9.52,8.727
					C323.925,164.069,323.525,164.213,323.127,164.213z"/>
			</g>
		</g>
		<g>
			<g>
				<path style="fill:#263238;" d="M350.366,146.987h10.049c0.912,0,1.651-0.739,1.651-1.651c0-0.912-0.739-1.651-1.651-1.651
					h-10.049c-0.912,0-1.651,0.739-1.651,1.651C348.715,146.248,349.454,146.987,350.366,146.987z"/>
			</g>
			<g>
				<path style="fill:#263238;" d="M349.837,136.445c0.399,0,0.798-0.144,1.115-0.434l9.52-8.727
					c0.672-0.616,0.717-1.66,0.101-2.333c-0.616-0.672-1.66-0.718-2.333-0.101l-9.52,8.727c-0.672,0.616-0.717,1.66-0.101,2.333
					C348.946,136.265,349.391,136.445,349.837,136.445z"/>
			</g>
			<g>
				<path style="fill:#263238;" d="M359.357,164.213c0.447,0,0.892-0.18,1.217-0.535c0.616-0.672,0.571-1.716-0.101-2.333
					l-9.52-8.727c-0.673-0.615-1.716-0.57-2.333,0.101c-0.616,0.672-0.571,1.717,0.101,2.333l9.52,8.727
					C358.558,164.069,358.958,164.213,359.357,164.213z"/>
			</g>
		</g>
		
			<circle style="fill:#263238;stroke:#263238;stroke-linecap:round;stroke-linejoin:round;stroke-miterlimit:10;" cx="341.615" cy="128.447" r="6.256"/>
		<path style="fill:#92E3A9;stroke:#263238;stroke-linecap:round;stroke-linejoin:round;stroke-miterlimit:10;" d="M345.181,160.675
			h-7.131c-4.509,0-8.164-3.655-8.164-8.164v-14.35c0-4.509,3.655-8.164,8.164-8.164h7.131c4.509,0,8.164,3.655,8.164,8.164v14.35
			C353.345,157.02,349.69,160.675,345.181,160.675z"/>
		<path style="fill:#9E9E9E;stroke:#263238;stroke-linecap:round;stroke-linejoin:round;stroke-miterlimit:10;" d="M341.615,138.761
			c4.375,0,8.335-1.771,11.205-4.634c-1.02-2.426-3.418-4.13-6.215-4.13h-9.981c-2.797,0-5.195,1.704-6.215,4.13
			C333.28,136.99,337.241,138.761,341.615,138.761z"/>
		
			<line style="fill:none;stroke:#263238;stroke-linecap:round;stroke-linejoin:round;stroke-miterlimit:10;" x1="341.615" y1="138.761" x2="341.615" y2="159.918"/>
	</g>
	<g>
		<g>
			<g>
				<path style="fill:#263238;" d="M203.411,207.492l-7.106-7.106c-0.645-0.645-0.645-1.69,0-2.335s1.69-0.645,2.335,0l7.106,7.106
					c0.645,0.645,0.645,1.69,0,2.335C205.101,208.136,204.055,208.136,203.411,207.492z"/>
			</g>
			<g>
				<path style="fill:#263238;" d="M211.239,200.411c-0.282-0.282-0.463-0.666-0.482-1.096l-0.561-12.903
					c-0.04-0.911,0.667-1.681,1.578-1.721c0.911-0.04,1.682,0.666,1.721,1.578l0.561,12.903c0.04,0.911-0.667,1.681-1.578,1.721
					C211.997,200.914,211.555,200.727,211.239,200.411z"/>
			</g>
			<g>
				<path style="fill:#263238;" d="M184.873,213.314c-0.316-0.316-0.503-0.758-0.482-1.239c0.04-0.911,0.81-1.617,1.721-1.578
					l12.902,0.561c0.911,0.04,1.616,0.81,1.578,1.721c-0.04,0.911-0.81,1.617-1.721,1.578l-12.903-0.561
					C185.539,213.778,185.154,213.596,184.873,213.314z"/>
			</g>
		</g>
		<g>
			<g>
				<path style="fill:#263238;" d="M216.314,220.395l7.106,7.106c0.645,0.645,1.69,0.645,2.335,0s0.645-1.69,0-2.335l-7.106-7.106
					c-0.645-0.645-1.69-0.645-2.335,0C215.669,218.705,215.669,219.75,216.314,220.395z"/>
			</g>
			<g>
				<path style="fill:#263238;" d="M223.395,212.567c0.282,0.282,0.666,0.463,1.096,0.482l12.903,0.561
					c0.911,0.04,1.681-0.667,1.721-1.578c0.04-0.911-0.666-1.682-1.578-1.721l-12.903-0.561c-0.911-0.04-1.681,0.667-1.721,1.578
					C222.892,211.809,223.079,212.251,223.395,212.567z"/>
			</g>
			<g>
				<path style="fill:#263238;" d="M210.491,238.933c0.316,0.316,0.758,0.503,1.239,0.482c0.911-0.04,1.617-0.81,1.578-1.721
					l-0.561-12.902c-0.04-0.911-0.81-1.616-1.721-1.578c-0.911,0.04-1.618,0.81-1.578,1.721l0.561,12.903
					C210.028,238.267,210.209,238.651,210.491,238.933z"/>
			</g>
		</g>
		
			<circle style="fill:#263238;stroke:#263238;stroke-linecap:round;stroke-linejoin:round;stroke-miterlimit:10;" cx="223.236" cy="201.097" r="6.256"/>
		<path style="fill:#92E3A9;stroke:#263238;stroke-linecap:round;stroke-linejoin:round;stroke-miterlimit:10;" d="M202.969,226.407
			l-5.043-5.042c-3.188-3.188-3.188-8.358,0-11.546l10.147-10.147c3.188-3.188,8.358-3.188,11.546,0l5.042,5.042
			c3.188,3.188,3.188,8.358,0,11.546l-10.147,10.147C211.326,229.596,206.157,229.596,202.969,226.407z"/>
		<path style="fill:#9E9E9E;stroke:#263238;stroke-linecap:round;stroke-linejoin:round;stroke-miterlimit:10;" d="M215.943,208.39
			c3.093,3.093,7.146,4.641,11.2,4.647c0.994-2.437,0.503-5.337-1.474-7.315l-7.057-7.057c-1.978-1.978-4.878-2.469-7.315-1.474
			C211.302,201.244,212.85,205.297,215.943,208.39z"/>
		
			<line style="fill:none;stroke:#263238;stroke-linecap:round;stroke-linejoin:round;stroke-miterlimit:10;" x1="215.943" y1="208.39" x2="200.983" y2="223.35"/>
	</g>
</g>
<g id="Character_2">
	<g>
		<g>
			<path style="fill:#FFFFFF;stroke:#263238;stroke-linecap:round;stroke-linejoin:round;stroke-miterlimit:10;" d="
				M621.321,434.908c0,0-3.583,1.743-8.65,4.639c-5.067,2.896-8.143,3.8-7.601,5.248c0.543,1.448,4.343,1.81,10.858,1.991
				c6.515,0.181,11.039-1.448,11.763-1.448c0.724,0,5.972,0.181,7.963-0.543c1.991-0.724,0.543-6.153,0.543-6.153
				S624.361,433.707,621.321,434.908z"/>
			<path style="fill:#FFFFFF;stroke:#263238;stroke-linecap:round;stroke-linejoin:round;stroke-miterlimit:10;" d="M661.04,442.152
				c0,0-3.704,7.734-5.011,9.476c-1.307,1.742,0.436,2.613,3.484,3.702c3.049,1.089,7.84-1.524,11.542-3.267
				c3.702-1.742,4.355-9.8,4.355-9.8L661.04,442.152z"/>
			<path style="fill:#263238;stroke:#263238;stroke-linecap:round;stroke-linejoin:round;stroke-miterlimit:10;" d="
				M680.703,299.022c0,0,4.568,9.977,4.319,19.969c-0.25,9.992-10.242,50.467-9.742,55.464c0.5,4.996,4.996,8.993,4.497,20.984
				c-0.5,11.991-3.747,39.219-3.747,39.219s0.749,4.496,0.25,6.245c-0.5,1.749-1.249,2.998-1.249,2.998s-2.248,0-5.246,0
				c-2.998,0-8.743-0.999-8.743-1.749c0-0.749,1.749-5.995,1.749-5.995l0.25-5.745c0,0-4.746-49.211-5.745-57.455
				c-0.999-8.243-4.746-47.47-4.746-47.47s-8.493,49.468-8.743,51.217c-0.25,1.749,1.249,11.991-1.499,19.485
				c-2.748,7.494-4.496,25.73-4.496,29.727c0,3.997-0.999,14.489-0.999,14.489s-4.996,0-7.744-1.249
				c-2.748-1.249-4.746-3.247-5.496-3.497c-0.749-0.25-2.248-0.749-2.248-0.749s0.25-1.998,0.749-3.747
				c0.5-1.749,2.498-5.246,2.498-5.246l0.75-33.474c0,0-0.5-18.485,0-21.483c0.5-2.998,0.25-5.995,0.25-6.995
				c0-0.999,0-38.227,1.249-46.221c1.249-7.994,1.596-18.327,1.596-18.327l48.864-5.654L680.703,299.022z"/>
		</g>
		<path style="fill:#92E3A9;stroke:#263238;stroke-linecap:round;stroke-linejoin:round;stroke-miterlimit:10;" d="M678.344,291.356
			l2.359,7.667c0,0-15.979,10.637-31.312,11.424c-15.333,0.786-20.249-2.919-21.429-3.902s0.451-7.129,0.451-7.129
			s17.102,1.769,25.948-0.393C663.207,296.86,678.344,291.356,678.344,291.356z"/>
		<polygon style="fill:#92E3A9;stroke:#263238;stroke-linecap:round;stroke-linejoin:round;stroke-miterlimit:10;" points="
			627.994,276.339 620.221,284.709 618.129,286.951 628.293,289.791 629.339,276.638 		"/>
		<g>
			<path style="fill:#92E3A9;stroke:#263238;stroke-linecap:round;stroke-linejoin:round;stroke-miterlimit:10;" d="
				M658.158,218.947c0,0,16.654,4.477,17.728,6.268c1.075,1.791-4.166,41.131-4.92,44.147c-0.754,3.016,1.508,12.441,3.016,14.514
				c1.508,2.073,5.843,4.335,5.843,7.917c0,3.581-24.316,12.441-32.987,12.441c-8.671,0-18.326-1.45-19.268-2.393
				c-0.942-0.943-0.147-4.205-0.147-4.959c0-0.754,0.188-22.054,0.188-22.054s-4.901-5.843-6.032-12.818
				c-1.131-6.974,0.406-15.845,0.406-15.845s-1.433-12.714-0.179-17.549c1.253-4.835,10.744-8.237,10.744-8.237
				S641.862,216.439,658.158,218.947z"/>
			<path style="fill:none;stroke:#263238;stroke-linecap:round;stroke-linejoin:round;stroke-miterlimit:10;" d="M644.367,272.29
				c-1.658-0.83-3.712-2.14-6.035-4.204"/>
			<path style="fill:none;stroke:#263238;stroke-linecap:round;stroke-linejoin:round;stroke-miterlimit:10;" d="M648.756,273.725
				c0,0-0.779-0.031-2.151-0.493"/>
		</g>
		<g>
			<path style="fill:#263238;stroke:#263238;stroke-linecap:round;stroke-linejoin:round;stroke-miterlimit:10;" d="M629.37,218.978
				c0,0-1.822,5.222-0.486,7.65c1.336,2.429,6.436,2.793,6.436,2.793s-0.486-1.457,0.607-4.129c1.093-2.671,2.914-6.922,2.914-6.922
				L629.37,218.978z"/>
			<path style="fill:#FFFFFF;stroke:#263238;stroke-linecap:round;stroke-linejoin:round;stroke-miterlimit:10;" d="
				M617.349,201.978c0,0,0.243,4.129,0.971,5.1c0.729,0.971,2.793,0,3.157,2.671c0.364,2.671,0.486,7.164,1.457,7.529
				c0.971,0.364,3.643-0.121,3.643-0.121s4.493,4.129,5.829,4.736c1.336,0.607,1.7,0.729,2.672,0
				c0.971-0.729,3.521-2.671,3.521-2.671s-1.943,5.586-1.214,7.286c0.729,1.7,3.4,4.493,6.436,1.7
				c3.036-2.793,4.857-9.107,4.857-9.107l-8.015-22.708l-21.979-5.221C618.684,191.17,616.256,200.278,617.349,201.978z"/>
			<path style="fill:#263238;stroke:#263238;stroke-linecap:round;stroke-linejoin:round;stroke-miterlimit:10;" d="M639.57,200.156
				c0,0,3.886,17.122,4.857,23.558c0.971,6.436-0.729,8.986-0.729,8.986s9.714-0.607,13.115-6.557
				c3.4-5.95,6.314-9.229,4.372-14.936c-1.943-5.707-7.286-23.801-12.386-29.993c-5.1-6.193-16.393-7.65-20.643-6.922
				c-4.25,0.729-9.107,6.314-11.293,10.443c-2.186,4.129-3.643,12.386-5.1,13.236c-1.457,0.85-2.793,2.914-0.607,3.521
				c2.186,0.607,6.193,0.486,6.193,0.486s0.243-3.886,0.85-5.707c0.607-1.822,1.093-2.914,1.093-2.914s0.729,2.064,8.865,4.493
				c8.136,2.429,11.172,1.214,11.172,1.214L639.57,200.156z"/>
			<path style="fill:none;stroke:#263238;stroke-linecap:round;stroke-linejoin:round;stroke-miterlimit:10;" d="M619.292,193.356
				c0,0,7.65,10.443,20.886,8.136"/>
			<path style="fill:none;stroke:#263238;stroke-linecap:round;stroke-linejoin:round;stroke-miterlimit:10;" d="M622.57,205.499
				c0,0,1.821-2.914,4.857-1.7"/>
			<path style="fill:none;stroke:#263238;stroke-linecap:round;stroke-linejoin:round;stroke-miterlimit:10;" d="M632.042,212.906
				c0,0,0.243,1.821-1.214,2.914"/>
			<path style="fill:#263238;" d="M625.539,208.602c0.297,0.82,0.921,1.345,1.394,1.174c0.473-0.171,0.616-0.975,0.319-1.794
				c-0.297-0.82-0.921-1.345-1.394-1.174C625.385,206.979,625.242,207.782,625.539,208.602z"/>
			<polygon style="fill:#263238;stroke:#263238;stroke-linecap:round;stroke-linejoin:round;stroke-miterlimit:10;" points="
				638.599,219.221 641.635,216.064 639.57,224.928 			"/>
		</g>
		<polygon style="fill:#D1D1D1;stroke:#263238;stroke-linecap:round;stroke-linejoin:round;stroke-miterlimit:10;" points="
			625.242,302.696 654.479,289.101 610.332,283.254 587.674,292.756 		"/>
		<polygon style="fill:#828282;stroke:#263238;stroke-linecap:round;stroke-linejoin:round;stroke-miterlimit:10;" points="
			624.139,300.122 645.633,290.127 613.177,285.828 596.519,292.814 		"/>
		<polygon style="fill:#B2B2B2;stroke:#263238;stroke-linecap:round;stroke-linejoin:round;stroke-miterlimit:10;" points="
			625.242,302.696 611.501,270.682 571.594,264.397 587.674,292.756 		"/>
		<g>
			<path style="fill:#FFFFFF;stroke:#263238;stroke-linecap:round;stroke-linejoin:round;stroke-miterlimit:10;" d="
				M608.432,294.802l3.362,4.532c0,0-1.169,1.316-2.193,0.877C608.578,299.772,606.385,293.925,608.432,294.802z"/>
			<path style="fill:#FFFFFF;stroke:#263238;stroke-linecap:round;stroke-linejoin:round;stroke-miterlimit:10;" d="
				M608.285,298.749c0,0-1.462,0.438-2.339-0.146c-0.877-0.585-2.485-5.555-1.754-5.701c0.731-0.146,2.777,3.216,2.777,3.216
				L608.285,298.749z"/>
			<path style="fill:#FFFFFF;stroke:#263238;stroke-linecap:round;stroke-linejoin:round;stroke-miterlimit:10;" d="
				M605.947,298.603c0,0-3.654-1.023-4.239-1.608c-0.585-0.585-1.754-6.14-0.585-5.409c1.169,0.731,2.777,4.824,2.777,4.824
				L605.947,298.603z"/>
			<path style="fill:#FFFFFF;stroke:#263238;stroke-linecap:round;stroke-linejoin:round;stroke-miterlimit:10;" d="
				M601.707,296.995c0,0-1.9,0.292-2.485-0.731c-0.585-1.023-0.731-2.777-0.146-3.801c0.585-1.023,1.462,1.169,1.462,1.169
				L601.707,296.995z"/>
		</g>
		<g>
			<g>
				<path style="fill:#92E3A9;stroke:#263238;stroke-linecap:round;stroke-linejoin:round;stroke-miterlimit:10;" d="
					M665.858,222.707c0,0,10.207,0.716,12.177,2.149c1.97,1.433,15.174,40.736,15.928,45.825c0.754,5.089-0.943,5.655-1.885,5.655
					c-0.943,0-22.997,7.163-25.635,7.728c-2.639,0.566-3.205,0.189-4.147-0.565c-0.943-0.754-5.466-6.22-4.147-9.425
					c1.32-3.204,3.582-3.77,3.582-3.77l14.326-5.278l-11.272-20.114"/>
				<path style="fill:none;stroke:#263238;stroke-linecap:round;stroke-linejoin:round;stroke-miterlimit:10;" d="M682.814,267.25
					c0,0-3.047-2.189-6.759-2.224"/>
				<path style="fill:none;stroke:#263238;stroke-linecap:round;stroke-linejoin:round;stroke-miterlimit:10;" d="M680.761,264.17
					c0,0,3.901,1.232,6.159,3.695"/>
			</g>
			<path style="fill:#92E3A9;stroke:#263238;stroke-linecap:round;stroke-linejoin:round;stroke-miterlimit:10;" d="
				M650.797,276.901c0,0,6.409-2.073,7.351-2.827c0.943-0.754,3.016-0.188,4.147,2.451c1.131,2.639,0,6.974,0,6.974l-7.54,1.885
				c0,0-1.885,0.377-3.77-2.828C649.1,279.352,648.723,277.09,650.797,276.901z"/>
			<g>
				<path style="fill:#FFFFFF;stroke:#263238;stroke-linecap:round;stroke-linejoin:round;stroke-miterlimit:10;" d="
					M634.479,281.945c0,0-3.73,1.536-3.949,2.523c-0.219,0.987-1.426,5.156-1.316,6.034c0.11,0.878,0,1.316,0.987,1.097
					c0.987-0.219,2.194-2.523,3.072-4.717c0.878-2.194,1.975-5.046,1.975-5.046L634.479,281.945z"/>
				<path style="fill:#FFFFFF;stroke:#263238;stroke-linecap:round;stroke-linejoin:round;stroke-miterlimit:10;" d="
					M650.606,278.105c0,0,3.62,2.523,3.73,4.059c0.11,1.536-3.84,4.059-6.363,4.937c-2.523,0.878-6.034,0.878-6.473,0.878
					c-0.439,0-6.692,4.169-8.228,4.827c-1.536,0.658-1.975-0.329-1.975-0.329s-1.207-0.219-1.097-0.878
					c0.11-0.658,0.987-1.975,0.987-1.975s0.549-2.194,1.207-4.717c0.658-2.523,4.059-4.279,5.266-4.498
					C638.868,280.189,647.534,277.008,650.606,278.105z"/>
				<path style="fill:none;stroke:#263238;stroke-linecap:round;stroke-linejoin:round;stroke-miterlimit:10;" d="M639.965,285.565
					c0,0-3.072,1.207-3.511,1.646c-0.439,0.439-5.156,5.266-5.156,5.266"/>
				
					<line style="fill:none;stroke:#263238;stroke-linecap:round;stroke-linejoin:round;stroke-miterlimit:10;" x1="637.332" y1="283.042" x2="631.188" y2="289.624"/>
			</g>
		</g>
	</g>
</g>
<g id="Character_1">
	<g>
		<polygon style="fill:#C2C2C2;stroke:#263238;stroke-linecap:round;stroke-linejoin:round;stroke-miterlimit:10;" points="
			159.986,265.957 155.971,265.695 153.788,272.241 162.866,276.868 168.625,267.275 		"/>
		<polygon style="fill:#92E3A9;stroke:#263238;stroke-miterlimit:10;" points="106.455,243.432 115.561,252.543 155.971,265.695 
			153.788,272.241 106.669,265.02 		"/>
		<g>
			<path style="fill:#C2C2C2;stroke:#263238;stroke-miterlimit:10;" d="M81.042,183.871c0,0-0.276,7.734-1.105,12.981
				c-0.829,5.248-1.105,7.457-1.105,7.457l15.191,5.8c0,0-1.381-10.496,0.552-14.915c1.933-4.419,2.21-7.457,2.21-7.457
				s-4.972-12.153-10.219-12.981C81.319,173.928,81.042,183.871,81.042,183.871z"/>
			<path style="fill:#263238;stroke:#263238;stroke-miterlimit:10;" d="M101.757,161.499c0,0,2.762-2.486-0.828-10.772
				c-3.591-8.286-20.991-7.734-29.277-0.276c-8.286,7.457-11.048,20.715-3.867,29.277c7.181,8.562,15.743,9.667,21.267,6.353
				c5.524-3.314,6.076-9.667,6.076-12.153c0-2.486-1.934-8.562,0.828-10.219C98.719,162.051,101.757,161.499,101.757,161.499z"/>
			<g>
				<path style="fill:#C2C2C2;stroke:#263238;stroke-miterlimit:10;" d="M100.929,159.565c0,0-12.981,6.076-12.981,8.286
					c0,2.21,5.524,3.038,3.867,5.8c-1.657,2.762-2.762,3.867-2.762,3.867s2.21,3.867,0.276,4.419
					c-1.934,0.552-2.762,0.552-4.696-2.21c-1.933-2.762-3.867-4.143-4.419,0.552c-0.552,4.695,1.657,5.524,3.314,5.8
					c1.657,0.276,3.867,0,3.867,0s2.762,6.629,4.696,7.457c1.933,0.829,11.324,1.933,13.257-0.276
					c1.934-2.21,0.552-12.153,0.552-12.153s2.762-0.553,2.762-3.038c0-2.486-4.419-6.076-4.419-6.076s1.105-1.657,0.276-5.524
					C103.691,162.603,100.929,159.565,100.929,159.565z"/>
				<path style="fill:#263238;" d="M101.313,173.218c0,0.871-0.353,1.577-0.788,1.577c-0.435,0-0.788-0.706-0.788-1.577
					c0-0.871,0.353-1.577,0.788-1.577C100.96,171.641,101.313,172.347,101.313,173.218z"/>
				<path style="fill:none;stroke:#263238;stroke-linecap:round;stroke-linejoin:round;stroke-miterlimit:10;" d="M97.81,170.402
					c0,0,0.412-2.337,3.987-1.925"/>
				<path style="fill:none;stroke:#263238;stroke-linecap:round;stroke-linejoin:round;stroke-miterlimit:10;" d="M102.484,184.699
					c0,0-2.2-0.137-3.437-1.787"/>
			</g>
			<g>
				<path style="fill:#92E3A9;stroke:#263238;stroke-miterlimit:10;" d="M65.84,425.712c0,0,2.884,6.489,5.768,8.652
					c2.884,2.163,8.291,1.802,9.012,5.407c0.721,3.605-2.163,3.965-4.686,3.965s-10.454,0-11.896-0.361
					c-1.442-0.361-8.291-3.244-12.617-6.849c-4.326-3.605-5.407-3.244-2.163-10.093C52.502,419.584,65.84,425.712,65.84,425.712z"/>
				<path style="fill:#FFFFFF;stroke:#263238;stroke-miterlimit:10;" d="M80.715,440.467c-3.489,0.618-10.352,1.462-16.378-0.045
					c-6.05-1.513-13.158-6.891-16.758-9.867c-0.757,2.806,0.661,3.321,3.841,5.972c4.326,3.605,11.175,6.489,12.617,6.849
					c1.442,0.361,9.373,0.361,11.896,0.361C78.284,443.736,80.942,443.42,80.715,440.467z"/>
			</g>
			<path style="fill:#263238;stroke:#263238;stroke-miterlimit:10;" d="M76.655,307.957c0,0-4.955,41.525-8.92,51.979
				c-3.965,10.454-9.927,17.07-11.369,25.001c-1.442,7.931-7.108,41.497-7.108,41.497s3.605,3.605,6.128,3.244
				c2.523-0.36,10.094,0.721,12.256-3.244c2.163-3.965,2.704-10.408,3.064-11.49c0.36-1.082,15.504-30.308,19.109-41.844
				c3.605-11.536,15.223-59.203,14.863-64.971"/>
			<path style="fill:#263238;stroke:#263238;stroke-miterlimit:10;" d="M74.012,279.474c0,0-4.419,12.981-2.762,24.582
				c1.657,11.6,14.639,17.401,23.753,15.743c9.115-1.657,15.316-8.01,15.316-19.058c0-11.048-1.381-20.439-1.381-20.439
				S91.136,285.826,74.012,279.474z"/>
			<g>
				<path style="fill:#92E3A9;stroke:#263238;stroke-miterlimit:10;" d="M77.367,199.509c0,0-8.286,15.467-8.838,27.896
					c-0.552,12.429,5.484,52.069,5.484,52.069s2.486,4.972,14.362,5.524c11.877,0.552,20.564-3.591,20.564-3.591
					s0.744-23.62,0.744-38.535c0-14.915-11.601-37.011-11.601-37.011L77.367,199.509z"/>
				<path style="fill:none;stroke:#263238;stroke-linecap:round;stroke-linejoin:round;stroke-miterlimit:10;" d="M70.971,233.904
					c0,0,0.729,8.746,11.297,9.839"/>
				<path style="fill:none;stroke:#263238;stroke-linecap:round;stroke-linejoin:round;stroke-miterlimit:10;" d="M73.886,245.566
					c0,0,5.466,3.644,12.755,2.187"/>
				<path style="fill:none;stroke:#263238;stroke-linecap:round;stroke-linejoin:round;stroke-miterlimit:10;" d="M77.578,280.007
					c0,0,10.568-9.111,16.035-17.492"/>
				<path style="fill:none;stroke:#263238;stroke-linecap:round;stroke-linejoin:round;stroke-miterlimit:10;" d="M92.519,271.26
					c0,0-9.111,9.475-12.39,10.568"/>
			</g>
			<polygon style="fill:#FFFFFF;stroke:#263238;stroke-miterlimit:10;" points="75.709,200.061 100.291,210.004 98.91,201.994 
				77.09,192.88 			"/>
			<g>
				<path style="fill:#92E3A9;stroke:#263238;stroke-miterlimit:10;" d="M106.935,435.445c0,0,7.21,4.326,11.175,6.128
					c3.965,1.802,4.326,1.442,4.326,3.965c0,2.523,0.36,2.884-6.128,2.884c-6.489,0-25.234,0.36-27.036-1.081
					C87.469,445.899,104.412,434.364,106.935,435.445z"/>
				<path style="fill:#FFFFFF;stroke:#263238;stroke-miterlimit:10;" d="M116.308,448.422c6.074,0,6.146-0.316,6.131-2.426
					c-18.476,0.562-27.483-0.137-31.859-0.953c-1.147,1.111-1.719,1.968-1.307,2.297
					C91.074,448.783,109.819,448.422,116.308,448.422z"/>
			</g>
			<g>
				<path style="fill:#263238;stroke:#263238;stroke-miterlimit:10;" d="M74.492,308.678c0,0,2.523,24.873,5.768,35.688
					c3.244,10.815,3.244,15.501,2.163,24.873c-1.081,9.372-4.686,18.024-2.163,26.676c2.523,8.652,7.57,45.658,7.57,47.1
					c0,1.442-0.36,3.605,1.442,4.326c1.802,0.721,17.303-9.733,17.664-11.896c0.36-2.163-2.523-8.652-2.523-14.419
					s1.802-39.53,1.802-55.752c0-16.222,7.531-51.016,1.763-65.435"/>
				<path style="fill:none;stroke:#FFFFFF;stroke-linecap:round;stroke-linejoin:round;stroke-miterlimit:10;" d="M76.538,324.372
					c0,0,1.703,12.103,3.722,19.993c2.019,7.89,4.069,11.581,1.609,21.422c-2.46,9.841-3.28,13.122-2.05,18.042"/>
			</g>
		</g>
		<g>
			
				<ellipse transform="matrix(0.9871 -0.1602 0.1602 0.9871 -30.5527 37.8961)" style="fill:none;stroke:#263238;stroke-width:7;stroke-linecap:round;stroke-linejoin:round;stroke-miterlimit:10;" cx="219.777" cy="208.454" rx="49.35" ry="49.35"/>
			<g>
				<path style="fill:#263238;" d="M188.782,249.624l-53.673,63.121c-2.333,2.743-6.448,3.076-9.191,0.744
					c-2.743-2.333-3.076-6.448-0.744-9.191c0.1-0.117,0.215-0.242,0.321-0.35l58.123-59.049c1.357-1.378,3.574-1.396,4.953-0.039
					C189.885,246.153,189.954,248.238,188.782,249.624z"/>
			</g>
		</g>
		<g>
			<path style="fill:#92E3A9;stroke:#263238;stroke-miterlimit:10;" d="M80.576,214.458c0,0-5.047,7.21-3.965,14.419
				c1.082,7.21,16.987,38.705,18.789,41.229c1.802,2.523,13.698,5.047,14.78-5.047c1.081-10.093-12.661-35.101-14.824-42.31
				c-2.163-7.21-6.849-8.652-6.849-8.652"/>
			<path style="fill:#92E3A9;stroke:#263238;stroke-miterlimit:10;" d="M107.495,257.519c0,0,10.567,1.336,17.97,5.814
				c7.403,4.478,23.206,10.638,23.206,10.638l-1.694,6.98c0,0-18.109-0.776-29.106-2.794c-10.997-2.018-18.104-2.985-22.164-8.811"
				/>
		</g>
		<path style="fill:#C2C2C2;stroke:#263238;stroke-linecap:round;stroke-linejoin:round;stroke-miterlimit:10;" d="M148.671,273.971
			c0,0,5.795-0.082,6.726-1.013c0.931-0.931,10.053,4.84,10.053,4.84s0.372,1.489-0.559,2.048s-2.234,0.931-2.234,0.931
			s-2.42,4.282-3.91,4.84c-1.489,0.559-5.585-0.372-7.447-1.117c-1.862-0.745-4.325-3.55-4.325-3.55L148.671,273.971z"/>
		<path style="fill:#C2C2C2;stroke:#263238;stroke-linecap:round;stroke-linejoin:round;stroke-miterlimit:10;" d="M170.986,271.36
			l-3.504-1.633c-0.627-0.292-0.899-1.038-0.606-1.665l0.085-0.181c0.292-0.627,1.038-0.899,1.665-0.606l3.504,1.633
			c0.627,0.292,0.899,1.038,0.606,1.665l-0.085,0.181C172.359,271.381,171.613,271.653,170.986,271.36z"/>
		<path style="fill:#C2C2C2;stroke:#263238;stroke-linecap:round;stroke-linejoin:round;stroke-miterlimit:10;" d="M165.809,277.784
			l-1.839-0.857c-0.627-0.292-0.899-1.038-0.606-1.665l0,0c0.292-0.627,1.038-0.899,1.665-0.606l1.838,0.857
			c0.627,0.292,0.899,1.038,0.606,1.665l0,0C167.181,277.805,166.436,278.077,165.809,277.784z"/>
		<path style="fill:#C2C2C2;stroke:#263238;stroke-linecap:round;stroke-linejoin:round;stroke-miterlimit:10;" d="M167.191,275.634
			l-2.694-1.255c-0.627-0.292-0.899-1.038-0.606-1.665l0.015-0.032c0.292-0.627,1.038-0.899,1.665-0.606l2.694,1.256
			c0.627,0.292,0.899,1.038,0.606,1.665l-0.015,0.032C168.563,275.655,167.818,275.926,167.191,275.634z"/>
		<path style="fill:#C2C2C2;stroke:#263238;stroke-linecap:round;stroke-linejoin:round;stroke-miterlimit:10;" d="M168.804,273.804
			l-3.504-1.633c-0.627-0.292-0.899-1.038-0.606-1.665l0.085-0.181c0.292-0.627,1.038-0.899,1.665-0.606l3.504,1.633
			c0.627,0.292,0.899,1.038,0.606,1.665l-0.085,0.181C170.177,273.825,169.431,274.097,168.804,273.804z"/>
		<path style="fill:#C2C2C2;stroke:#263238;stroke-linecap:round;stroke-linejoin:round;stroke-miterlimit:10;" d="M157.629,266.568
			c0,0,6.828-2.614,7.388-2.8c0.56-0.187,5.601,2.614,5.601,2.614s-0.56,3.36-0.933,4.294c-0.373,0.933-2.053,1.493-2.427,0.187
			s-0.373-2.427-0.373-2.427s-2.053,0.933-3.734,1.12c-1.68,0.187-4.107-0.56-4.107-0.56"/>
	</g>
</g>
</svg>
